<?xml version="1.0"?><svg width="640" height="480" xmlns="http://www.w3.org/2000/svg">
 <g display="inline">
  <title>sgfdg</title>
  <g id="svg_10">
   <g id="svg_11">
    <path d="m140.916595,193.896927c32.111847,0 58.141464,-30.421951 58.141464,-67.94738c0,-37.530678 -26.029617,-67.957825 -58.141464,-67.957825c-32.107513,0 -58.138596,30.427147 -58.138596,67.957825c0,37.525429 26.031082,67.94738 58.138596,67.94738z" id="svg_12" fill="#000000"/>
    <path d="m140.916595,125.949547" id="svg_13" fill="#000000"/>
   </g>
   <path d="m266.459259,106.680016l232.396484,0c34.094818,0 54.178802,25.648048 54.178802,59.985085l0,98.31546l-286.575287,0l0,-158.300545z" id="svg_14" fill="#000000"/>
   <path d="m203.202225,141.858536l0,58.966324l-89.35199,0c-43.137222,0.180801 -43.207207,64.988464 0,64.988464l117.139847,0c17.106155,0 27.81601,-16.13678 27.81601,-34.390961l0,-89.563828c0,-49.063881 -55.603867,-49.063881 -55.603867,0z" id="svg_15" fill="#000000"/>
   <path d="m71.676834,50.024178c0,-53.509167 -63.519015,-53.509167 -63.519015,0l0,429.08181l64.929156,0l0,-110.811859l494.023682,0l0,109.979095l63.517334,0l0,-331.407883c0,-56.46981 -64.22229,-56.46981 -64.22229,0l0,132.278763l-494.728905,0l0,-229.119926l0.000038,0z" id="svg_16" fill="#000000"/>
  </g>
 </g>
</svg>